HIERARCHY
ROOT hip
{
	OFFSET 0.000000 0.000000 0.000000 
	CHANNELS 6 Xposition Yposition Zposition Xrotation Zrotation Yrotation
	JOINT abdomen
	{
		OFFSET 0.000000 3.402643 0.000000 
		CHANNELS 3 Xrotation Zrotation Yrotation
		JOINT chest
		{
			OFFSET 0.000000 8.438565 -0.680529 
			CHANNELS 3 Xrotation Zrotation Yrotation
			JOINT neck
			{
				OFFSET 0.000000 10.207942 -0.272212 
				CHANNELS 3 Xrotation Zrotation Yrotation
				JOINT head
				{
					OFFSET 0.000000 3.130431 0.000000 
					CHANNELS 3 Xrotation Zrotation Yrotation
					End Site
					{
						OFFSET 0.000000 3.130435 0.000000 
					}
				}
			}
			JOINT lCollar
			{
				OFFSET 3.470700 6.669187 -0.816635 
				CHANNELS 3 Yrotation Zrotation Xrotation
				JOINT lShldr
				{
					OFFSET 3.198488 0.000000 0.000000 
					CHANNELS 3 Zrotation Yrotation Xrotation
					JOINT lForeArm
					{
						OFFSET 10.139888 0.000000 0.000000 
						CHANNELS 3 Yrotation Zrotation Xrotation
						JOINT lHand
						{
							OFFSET 8.370511 0.000000 0.000000 
							CHANNELS 3 Zrotation Yrotation Xrotation
							End Site
							{
								OFFSET 4.083176 0.000000 0.000000 
							}
						}
					}
				}
			}
			JOINT rCollar
			{
				OFFSET -3.470700 6.669187 -0.816635 
				CHANNELS 3 Yrotation Zrotation Xrotation
				JOINT rShldr
				{
					OFFSET -3.198488 0.000000 0.000000 
					CHANNELS 3 Zrotation Yrotation Xrotation
					JOINT rForeArm
					{
						OFFSET -10.139888 0.000000 0.000000 
						CHANNELS 3 Yrotation Zrotation Xrotation
						JOINT rHand
						{
							OFFSET -8.370511 0.000000 0.000000 
							CHANNELS 3 Zrotation Yrotation Xrotation
							End Site
							{
								OFFSET -4.083176 0.000000 0.000000 
							}
						}
					}
				}
			}
		}
	}
	JOINT lThigh
	{
		OFFSET 5.308129 -1.633274 1.361059 
		CHANNELS 3 Xrotation Zrotation Yrotation
		JOINT lShin
		{
			OFFSET -2.041588 -20.007561 0.000000 
			CHANNELS 3 Xrotation Zrotation Yrotation
			JOINT lFoot
			{
				OFFSET 0.000000 -19.190928 -1.224953 
				CHANNELS 3 Xrotation Yrotation Zrotation
				End Site
				{
					OFFSET 0.000000 -2.449906 4.627600 
				}
			}
		}
	}
	JOINT rThigh
	{
		OFFSET -5.308129 -1.633274 1.361059 
		CHANNELS 3 Xrotation Zrotation Yrotation
		JOINT rShin
		{
			OFFSET 2.041588 -20.007561 0.000000 
			CHANNELS 3 Xrotation Zrotation Yrotation
			JOINT rFoot
			{
				OFFSET 0.000000 -19.190928 -1.224953 
				CHANNELS 3 Xrotation Yrotation Zrotation
				End Site
				{
					OFFSET 0.000000 -2.449906 4.627600 
				}
			}
		}
	}
}
MOTION
Frames: 8
Frame Time: 0.011111
29.454054 53.611225 -54.431011 -2.007471 -3.497660 -7.480147 21.679379 2.545859 -0.297254 -20.624281 3.708633 -0.012550 -12.467893 -5.618600 -2.548485 38.284969 -0.205299 -6.988071 2.971642 -4.490881 1.927035 -43.086937 -77.021362 32.118866 -108.419716 11.408288 44.347416 8.524705 12.647240 -35.345108 -4.704987 0.510038 2.448925 75.476929 30.063606 17.583456 44.181488 -6.144166 5.906885 -8.534408 -12.637552 52.093605 7.818320 11.578505 5.165460 20.016222 -5.786807 -3.497182 -22.367065 0.828834 -2.181610 4.283672 -3.930810 2.487553 26.370981 5.488066 4.381944 -22.480755 -4.133169 0.917209 
29.455940 53.602737 -54.429131 -2.055700 -3.377144 -7.481700 21.764563 2.333765 -0.255752 -20.526691 3.640909 0.024457 -12.527312 -5.575189 -2.651059 37.931103 0.062760 -7.084105 2.971642 -4.490881 1.927035 -43.116692 -77.470566 32.185814 -108.354889 11.405162 44.320984 8.524705 12.647240 -35.345108 -4.704987 0.510038 2.448925 75.658035 30.063654 17.801317 44.273914 -6.173254 5.940151 -8.534408 -12.637552 53.187359 7.923129 11.418842 5.137482 19.922981 -5.791854 -3.499774 -22.493893 0.782875 -2.187793 4.274794 -4.078471 2.383971 26.460201 5.492878 4.381139 -22.509697 -4.058444 0.929739 
29.444628 53.600227 -54.436359 -2.075610 -3.484920 -7.418122 21.873199 2.408587 -0.203401 -20.595188 3.640935 0.020116 -12.434100 -5.753293 -2.672593 37.652191 0.501041 -7.016491 2.971642 -4.490881 1.927035 -43.435291 -77.869255 32.644981 -108.288200 11.404977 44.285442 8.524705 12.647240 -35.218151 -4.704987 0.510038 2.448925 75.746826 30.039301 18.078686 44.109493 -6.118770 5.872380 -8.534408 -12.637552 54.290874 7.963370 11.556972 5.137769 19.854744 -5.782143 -3.482368 -22.494236 0.834985 -2.166476 4.321523 -3.901019 2.482044 26.539680 5.493014 4.397872 -22.591860 -4.256367 0.847472 
29.455313 53.581051 -54.450500 -2.192184 -3.240727 -7.274283 22.025578 2.153869 -0.438893 -20.692562 3.767191 -0.018340 -12.347814 -5.865387 -2.618906 37.580730 0.690931 -6.857419 2.971642 -4.490881 1.927035 -43.617332 -78.004944 32.987019 -108.212494 11.400610 44.248386 8.524705 12.647240 -35.550182 -4.704987 0.510038 2.448925 75.751740 30.107529 17.404861 43.668892 -5.981591 5.712433 -8.534408 -12.637552 53.109234 8.083144 11.296329 4.856887 19.841156 -5.793336 -3.492038 -22.562798 0.884535 -2.146792 4.370497 -4.193860 2.287204 26.619476 5.493119 4.404891 -22.718863 -4.189279 0.850740 
29.457514 53.561882 -54.468414 -2.260212 -3.208809 -7.232918 22.161367 2.115339 -0.527146 -20.721485 3.883865 -0.042589 -12.182664 -5.985495 -2.533794 37.327629 0.818562 -6.635229 2.971642 -4.490881 1.927035 -43.763054 -78.043144 32.977730 -108.138680 11.393038 44.222347 8.524705 12.647240 -36.302135 -4.704987 0.510038 2.448925 75.701630 30.110229 17.246431 43.525612 -5.937090 5.663024 -8.534408 -12.637552 52.025246 8.109287 11.233771 4.740401 19.864584 -5.782251 -3.492987 -22.660461 0.862897 -2.149012 4.423898 -4.237051 2.274603 26.631758 5.479179 4.413394 -22.796387 -4.267976 0.798264 
29.443686 53.559998 -54.478779 -2.260351 -3.336818 -7.257202 22.201509 2.221729 -0.476637 -20.711376 3.971737 -0.044012 -12.068443 -6.133733 -2.517103 37.001808 0.965414 -6.580621 2.971642 -4.490881 1.927035 -43.969936 -78.334969 32.928749 -108.203629 11.397183 44.258575 8.524705 12.647240 -36.409554 -4.704987 0.510038 2.448925 75.572258 29.989992 17.607372 43.393028 -5.897526 5.611099 -8.534408 -12.637552 52.103374 8.032323 11.400651 4.880082 19.955933 -5.783017 -3.501022 -22.649923 0.748925 -2.197851 4.433944 -4.023119 2.562639 26.619476 5.493116 4.404891 -22.844244 -4.556068 0.682643 
29.439602 53.558739 -54.486637 -2.260984 -3.331817 -7.130349 22.210642 2.215679 -0.541670 -20.652386 4.039675 -0.061031 -12.168074 -6.181790 -2.523111 36.890453 1.104883 -6.564588 2.971642 -4.490881 1.927035 -44.119133 -78.685783 33.045280 -108.277473 11.404623 44.284607 8.524705 12.647240 -36.097061 -4.704987 0.510038 2.448925 75.525200 29.894680 17.424957 43.219254 -5.841765 5.544008 -8.534408 -12.637552 52.044781 7.839501 11.433434 4.828475 20.202135 -5.773803 -3.531317 -22.736891 0.647105 -2.227883 4.459279 -3.989644 2.656083 26.500629 5.488482 4.393393 -22.961435 -4.692152 0.602959 
29.430799 53.550251 -54.514294 -2.204146 -3.581646 -6.957767 22.282883 2.516158 -0.587829 -20.613298 4.019325 -0.096902 -12.158078 -6.201892 -2.481190 36.587566 1.285416 -6.408855 2.971642 -4.490881 1.927035 -44.174320 -78.734291 33.123386 -108.138680 11.393038 44.222347 8.524705 12.647240 -36.341198 -4.704987 0.510038 2.448925 75.607460 29.919609 17.198965 43.311230 -5.872956 5.586854 -8.534408 -12.637552 51.839703 7.536235 11.784520 4.796645 20.516785 -5.772137 -3.578632 -22.851587 0.466017 -2.274271 4.609778 -3.642177 2.854547 26.277380 5.512724 4.349359 -23.094074 -4.857059 0.527053 
